<svg xmlns="http://www.w3.org/2000/svg" version="1.1" xmlns:xlink="http://www.w3.org/1999/xlink" width="512" height="512"><svg width="512" height="512" viewBox="0 0 512 512" fill="none" xmlns="http://www.w3.org/2000/svg">
<rect width="512" height="512" rx="256" fill="#0E0E0E"></rect>
<path d="M270.585 412.624L256.495 426.715L205.517 375.744C203.105 373.328 201.75 370.053 201.75 366.639C201.75 363.225 203.105 359.95 205.517 357.535L219.616 343.443L270.593 394.422C271.788 395.618 272.735 397.037 273.381 398.599C274.028 400.16 274.36 401.834 274.359 403.525C274.358 405.215 274.025 406.888 273.377 408.45C272.73 410.011 271.781 411.429 270.585 412.624Z" fill="#F2F2F2"></path>
<path d="M387.107 296.084L367.131 316.061L219.617 168.541L152.06 236.101C146.788 241.375 143.827 248.528 143.827 255.985C143.827 263.443 146.788 270.595 152.06 275.87L182.738 306.564L237.795 251.513C240.251 249.056 243.167 247.107 246.376 245.777C249.586 244.447 253.025 243.763 256.499 243.763C259.973 243.763 263.413 244.447 266.623 245.777C269.832 247.107 272.748 249.056 275.204 251.513L279.691 256L242.812 292.88L256.496 306.564L274.666 288.393C277.122 285.936 280.038 283.987 283.247 282.657C286.456 281.327 289.896 280.643 293.37 280.643C296.844 280.643 300.284 281.327 303.494 282.657C306.703 283.987 309.619 285.936 312.075 288.393L316.562 292.88L279.683 329.76L293.374 343.444L311.545 325.273C314 322.816 316.916 320.867 320.126 319.537C323.335 318.207 326.775 317.522 330.249 317.522C333.723 317.522 337.163 318.207 340.372 319.537C343.582 320.867 346.498 322.816 348.953 325.273L353.448 329.768L302.486 380.731C301.291 381.928 299.872 382.877 298.31 383.524C296.747 384.172 295.073 384.505 293.382 384.505C291.691 384.505 290.016 384.172 288.454 383.524C286.892 382.877 285.473 381.928 284.277 380.731L219.617 316.069L191.843 343.844C190.648 345.04 189.228 345.989 187.666 346.637C186.104 347.284 184.429 347.618 182.738 347.618C181.047 347.618 179.373 347.284 177.811 346.637C176.248 345.989 174.829 345.04 173.634 343.844L125.884 296.084C115.253 285.453 109.281 271.035 109.281 256C109.281 240.966 115.253 226.548 125.884 215.917L200.932 140.874C205.894 135.915 212.621 133.129 219.636 133.129C226.651 133.129 233.379 135.915 238.341 140.874L367.131 269.684C370.758 266.054 372.795 261.132 372.795 256C372.795 250.869 370.758 245.947 367.131 242.317L252.001 127.19C249.544 124.734 247.595 121.818 246.265 118.609C244.935 115.399 244.251 111.959 244.251 108.485C244.251 105.011 244.935 101.571 246.265 98.3613C247.595 95.1518 249.544 92.2358 252.001 89.7799L256.496 85.2852L387.107 215.901C392.373 221.166 396.551 227.416 399.401 234.295C402.251 241.174 403.718 248.547 403.718 255.993C403.718 263.439 402.251 270.812 399.401 277.691C396.551 284.57 392.373 290.82 387.107 296.084Z" fill="#F2F2F2"></path>
<path d="M224.097 237.829L182.739 279.196L178.252 274.701C173.293 269.739 170.508 263.011 170.508 255.996C170.508 248.981 173.293 242.253 178.252 237.291L219.617 195.932L224.104 200.419C226.561 202.875 228.51 205.791 229.839 209.001C231.168 212.211 231.852 215.651 231.851 219.125C231.85 222.599 231.165 226.039 229.835 229.248C228.504 232.458 226.554 235.373 224.097 237.829Z" fill="#F3B712"></path>
</svg><style>@media (prefers-color-scheme: light) { :root { filter: none; } }
@media (prefers-color-scheme: dark) { :root { filter: none; } }
</style></svg>