<svg width="161" height="160" viewBox="0 0 161 160" fill="none" xmlns="http://www.w3.org/2000/svg">
<g id="variant=web-header">
<path id="Rectangle" fill-rule="evenodd" clip-rule="evenodd" d="M80.7051 0C74.5218 6.16448 74.5218 16.1791 80.7051 22.3435L138.773 80.2348L149.979 69.063L80.7051 0Z" fill="#394657"/>
<path id="Rectangle_2" fill-rule="evenodd" clip-rule="evenodd" d="M149.732 91.1758C155.915 85.0113 155.915 74.9968 149.732 68.8323L121.33 97.1476L132.536 108.319L149.732 91.1758Z" fill="#394657"/>
<path id="Rectangle_3" fill-rule="evenodd" clip-rule="evenodd" d="M115.52 125.283C121.704 119.118 121.704 109.104 115.52 102.939L81.064 137.291L92.2698 148.463L115.52 125.283Z" fill="#394657"/>
<path id="Rectangle_4" fill-rule="evenodd" clip-rule="evenodd" d="M63.9561 39.9764L75.2958 28.6712L143.826 96.9924L132.486 108.298L63.9561 39.9764Z" fill="#394657"/>
<path id="Rectangle_5" fill-rule="evenodd" clip-rule="evenodd" d="M12.2777 91.8427C6.03202 85.616 6.06419 75.4905 12.3493 69.3036L57.7165 114.533L46.3767 125.838L12.2777 91.8427Z" fill="#394657"/>
<path id="Rectangle_6" fill-rule="evenodd" clip-rule="evenodd" d="M75.4094 28.7778C69.2151 22.6023 59.192 22.6023 52.9977 28.7778L12.1926 69.4587L23.3985 80.6305L75.4094 28.7778Z" fill="#394657"/>
<path id="Rectangle_7" fill-rule="evenodd" clip-rule="evenodd" d="M98.1476 107.963C104.331 101.798 104.331 91.7839 98.1476 85.6194L63.6912 119.971L74.897 131.143L98.1476 107.963Z" fill="#394657"/>
<path id="Rectangle_8" fill-rule="evenodd" clip-rule="evenodd" d="M81.1201 91.1758C87.3034 85.0113 87.3034 74.9968 81.1201 68.8323L46.3206 103.526L57.5264 114.698L81.1201 91.1758Z" fill="#394657"/>
<path id="Rectangle_9" fill-rule="evenodd" clip-rule="evenodd" d="M63.7471 74.3888C69.9304 68.2243 69.9304 58.2098 63.7471 52.0453L46.128 69.6108C39.9447 75.7753 39.9447 85.7899 46.128 91.9544L63.7471 74.3888Z" fill="#B6903D"/>
<path id="Rectangle_10" fill-rule="evenodd" clip-rule="evenodd" d="M52.2549 131.698C55.4647 128.498 60.6585 128.498 63.8683 131.698L86.4504 154.211L80.6437 160L52.2549 131.698Z" fill="#394657"/>
<path id="Rectangle_11" fill-rule="evenodd" clip-rule="evenodd" d="M46.5356 103.337L57.8754 92.0318L103.361 137.379L92.0212 148.684L46.5356 103.337Z" fill="#394657"/>
</g>
</svg>
